<svg xmlns="http://www.w3.org/2000/svg" xmlns:xlink="http://www.w3.org/1999/xlink" width="83.339" height="16.668" viewBox="0 0 83.339 16.668">
  <defs>
    <clipPath id="clip-path">
      <rect id="Rectangle_12689" data-name="Rectangle 12689" width="83.339" height="16.663" fill="none"/>
    </clipPath>
  </defs>
  <g id="Group_222" data-name="Group 222" transform="translate(0 0.016)">
    <path id="Path_254" data-name="Path 254" d="M6.51-4.78H2.76L6.469-9.468v-1.3H.552v1.49H4.26L.51-4.6V-3.29h6Zm2.646-5.99H7.417v7.48h1.74Zm2.927,4.875H13.5c1.761,0,2.854-.844,2.854-2.438S15.261-10.77,13.5-10.77H10.344v7.48h1.74Zm0-1.458V-9.3h1.323c.823,0,1.24.354,1.24.969s-.417.979-1.24.979Zm6.73,1.458H20.23c1.761,0,2.854-.844,2.854-2.438S21.991-10.77,20.23-10.77H17.074v7.48h1.74Zm0-1.458V-9.3h1.323c.823,0,1.24.354,1.24.969s-.417.979-1.24.979Zm7.323-.521-1.708-2.9H22.543l2.7,4.479v3h1.74v-3l2.7-4.479H27.845Z" transform="translate(22.936 15.615)" fill="#566376"/>
    <path id="Path_253" data-name="Path 253" d="M2.563-3.341V-6.174H5.5V-7.633H2.563v-1.7H6.095v-1.49H.855v7.48Zm3.448-3.74A3.579,3.579,0,0,0,9.6-3.226a3.573,3.573,0,0,0,3.584-3.854A3.573,3.573,0,0,0,9.6-10.935,3.579,3.579,0,0,0,6.012-7.081Zm5.427,0c0,1.438-.76,2.344-1.844,2.344S7.762-5.643,7.762-7.081,8.512-9.424,9.6-9.424,11.439-8.518,11.439-7.081ZM15.762-6h.875l1.625,2.656h1.99l-1.8-2.844a2.212,2.212,0,0,0,1.583-2.229c0-1.563-1.094-2.406-2.854-2.406H14.023v7.48h1.74Zm0-1.417V-9.352h1.323c.823,0,1.24.354,1.24.969s-.417.969-1.24.969Zm9.751,4.073,1.646-5.177v5.177h1.656v-7.48H26.43L24.909-5.914,23.388-10.82H20.961v7.48h1.656V-8.518l1.646,5.177Z" transform="translate(54.503 15.666)" fill="#566376"/>
    <path id="Path_161" data-name="Path 161" d="M12.925,0,0,1.869V14.794l1.372.2,1.869.27,9.685,1.4Z" transform="translate(0 -0.017)" fill="#566376"/>
    <rect id="Rectangle_12687" data-name="Rectangle 12687" width="2.097" height="12.08" transform="translate(17.361 2.28)" fill="#566376"/>
    <rect id="Rectangle_12688" data-name="Rectangle 12688" width="2.097" height="14.661" transform="translate(14.166 0.99)" fill="#566376"/>
    <g id="Group_217" data-name="Group 217" transform="translate(0 -0.011)">
      <g id="Group_216" data-name="Group 216" transform="translate(0 0)" clip-path="url(#clip-path)">
        <path id="Path_162" data-name="Path 162" d="M10.953,14.711l-.319,3.23L9.7,16.86,2.974,24.334l-1.715-.27,1.349-8L0,18.962V17.106l3.12-3.464a.558.558,0,0,1,.7-.122.663.663,0,0,1,.31.693L2.685,22.8l6.2-6.89-.868-1Z" transform="translate(0 -9.071)" fill="#fff"/>
      </g>
    </g>
  </g>
</svg>
